#!OML:ASF G:\JayActor3\Patient Classification 1\Patient 1\Session 6\male.ASF
:FULLY-SPECIFIED
:DEGREES
1564
root -7.767 16.7676 -2.88547 58.0285 -85.6161 -58.7793
lowerback 4.65336 3.8764 3.59624
upperback -1.67026 5.29574 -2.54459
thorax -3.76764 2.51349 -5.04533
lowerneck 8.79731 15.1439 6.63209
upperneck -3.82769 21.0837 3.28199
head -2.35938 10.2246 -0.908134
rclavicle -1.05729e-014 1.11319e-014
rhumerus -35.5201 -4.47864 -61.969
rradius 80.6672
rwrist 8.35247
rhand -50.8964 3.8777
rfingers 7.12502
rthumb -23.4492 -24.7134
lclavicle -1.05729e-014 1.11319e-014
lhumerus 64.8368 -53.3579 22.0706
lradius 93.9902
lwrist 38.3832
lhand -22.4089 9.83069
lfingers 7.12502
lthumb 4.01396 39.7726
rfemur -4.97942 5.61371 22.5004
rtibia 30.2168
rfoot -17.3829 -5.15865
rtoes -3.10018
lfemur -14.0315 -9.9489 -5.79041
ltibia 30.4181
lfoot 13.2576 -27.8416
ltoes 23.3707
1565
root -7.74842 16.7761 -2.962 47.9573 -84.9896 -48.7169
lowerback 4.66827 3.86514 3.56326
upperback -1.67806 5.27699 -2.58722
thorax -3.78515 2.50363 -5.07193
lowerneck 8.75618 15.0527 6.57295
upperneck -3.85329 20.9623 3.38858
head -2.38189 10.1602 -0.865865
rclavicle 1.80273e-014 1.59028e-015
rhumerus -35.1054 -4.24543 -62.0826
rradius 80.7188
rwrist 8.27373
rhand -50.8505 3.82601
rfingers 7.12502
rthumb -23.4052 -24.7707
lclavicle 1.80273e-014 1.59028e-015
lhumerus 64.1528 -52.9097 22.4688
lradius 93.8033
lwrist 38.4826
lhand -22.4972 9.91059
lfingers 7.12502
lthumb 3.92861 39.8541
rfemur -4.81364 4.93837 22.7453
rtibia 29.9997
rfoot -17.3819 -5.26106
rtoes -3.14497
lfemur -14.3267 -9.82881 -5.7511
ltibia 30.7015
lfoot 11.636 -27.3966
ltoes 21.4985
1566
root -7.73039 16.7828 -3.03702 40.5588 -84.2229 -41.3267
lowerback 4.681 3.8424 3.57464
upperback -1.69248 5.24618 -2.62284
thorax -3.8065 2.48658 -5.11547
lowerneck 8.71156 14.9543 6.52479
upperneck -3.85796 20.8308 3.49831
head -2.39589 10.0915 -0.821933
rclavicle -3.00413e-014 -3.18055e-015
rhumerus -34.7105 -3.98954 -62.2033
rradius 80.7904
rwrist 8.1739
rhand -50.7996 3.75672
rfingers 7.12502
rthumb -23.3564 -24.8462
lclavicle -3.00413e-014 -3.18055e-015
lhumerus 63.4572 -52.4668 22.874
lradius 93.6043
lwrist 38.4996
lhand -22.5115 9.96034
lfingers 7.12502
lthumb 3.91485 39.9041
rfemur -4.65172 4.31586 23.0216
rtibia 29.7808
rfoot -17.3955 -5.35447
rtoes -3.23527
lfemur -14.628 -9.63262 -5.72282
ltibia 31.0737
lfoot 9.67234 -26.792
ltoes 19.4055
1567
root -7.71348 16.7876 -3.11008 35.1642 -83.3767 -35.9488
lowerback 4.68897 3.81038 3.61788
upperback -1.70959 5.20539 -2.65061
thorax -3.82712 2.46389 -5.16777
lowerneck 8.67194 14.8485 6.48953
upperneck -3.84729 20.6898 3.60708
head -2.40404 10.0186 -0.77892
rclavicle 8.07438e-014 -3.02153e-014
rhumerus -34.3321 -3.70779 -62.3287
rradius 80.8769
rwrist 8.07183
rhand -50.7574 3.66455
rfingers 7.12502
rthumb -23.3159 -24.9435
lclavicle 8.07438e-014 -3.02153e-014
lhumerus 62.7461 -52.029 23.2943
lradius 93.3917
lwrist 38.4421
lhand -22.4433 9.96159
lfingers 7.12502
lthumb 3.98071 39.9042
rfemur -4.48536 3.73166 23.317
rtibia 29.5623
rfoot -17.4203 -5.43698
rtoes -3.39543
lfemur -14.9151 -9.34204 -5.72235
ltibia 31.5277
lfoot 7.45278 -25.9919
ltoes 17.1978
1568
root -7.69802 16.7904 -3.18091 31.1184 -82.4933 -31.9304
lowerback 4.68523 3.77111 3.67381
upperback -1.72455 5.1558 -2.67044
thorax -3.83965 2.43692 -5.21729
lowerneck 8.63456 14.7369 6.46202
upperneck -3.82077 20.5408 3.71372
head -2.40607 9.94234 -0.736324
rclavicle 1.21259e-014 1.59028e-015
rhumerus -33.9614 -3.4022 -62.453
rradius 80.9717
rwrist 7.98147
rhand -50.7212 3.56249
rfingers 7.12502
rthumb -23.2812 -25.05
lclavicle 1.21259e-014 1.59028e-015
lhumerus 62.0172 -51.5915 23.7309
lradius 93.1756
lwrist 38.3603
lhand -22.3344 9.92254
lfingers 7.12502
lthumb 4.08583 39.8631
rfemur -4.31288 3.16291 23.6127
rtibia 29.3492
rfoot -17.4581 -5.49358
rtoes -3.55703
lfemur -15.1756 -8.94414 -5.7652
ltibia 32.0512
lfoot 5.15093 -24.9777
ltoes 15.1346
1569
root -7.68374 16.7914 -3.24949 27.93 -81.6007 -28.7799
lowerback 4.6709 3.72785 3.72144
upperback -1.73465 5.10024 -2.68539
thorax -3.84309 2.40762 -5.2556
lowerneck 8.59724 14.6196 6.43866
upperneck -3.78504 20.3838 3.82122
head -2.40457 9.86253 -0.693105
rclavicle 2.93456e-014 1.59028e-015
rhumerus -33.5881 -3.07542 -62.5715
rradius 81.0663
rwrist 7.91964
rhand -50.6975 3.44239
rfingers 7.12502
rthumb -23.2584 -25.1729
lclavicle 2.93456e-014 1.59028e-015
lhumerus 61.2928 -51.1536 24.168
lradius 92.9607
lwrist 38.254
lhand -22.2284 9.89443
lfingers 7.12502
lthumb 4.18817 39.833
rfemur -4.14123 2.59926 23.8919
rtibia 29.1524
rfoot -17.5126 -5.5331
rtoes -3.69992
lfemur -15.3972 -8.45066 -5.86655
ltibia 32.6244
lfoot 2.88235 -23.7901
ltoes 13.2541
1570
root -7.67052 16.791 -3.31579 25.4052 -80.7117 -26.2989
lowerback 4.64035 3.68424 3.76315
upperback -1.73879 5.04371 -2.6915
thorax -3.83265 2.37868 -5.27967
lowerneck 8.56371 14.5022 6.41495
upperneck -3.7499 20.2266 3.92298
head -2.40313 9.78283 -0.651757
rclavicle 4.13969e-014 2.54444e-014
rhumerus -33.2048 -2.73725 -62.6806
rradius 81.1526
rwrist 7.89719
rhand -50.684 3.35014
rfingers 7.12502
rthumb -23.2455 -25.2668
lclavicle 4.13969e-014 2.54444e-014
lhumerus 60.5851 -50.7128 24.595
lradius 92.7536
lwrist 38.1518
lhand -22.1399 9.87772
lfingers 7.12502
lthumb 4.27365 39.8146
rfemur -3.98126 2.03978 24.1618
rtibia 28.9795
rfoot -17.5875 -5.56543
rtoes -3.82107
lfemur -15.5805 -7.85301 -6.01253
ltibia 33.2311
lfoot 0.750961 -22.5151
ltoes 11.5703
1571
root -7.65786 16.7891 -3.37989 23.3024 -79.834 -24.2426
lowerback 4.60102 3.64082 3.79157
upperback -1.73933 4.98639 -2.69495
thorax -3.81501 2.35 -5.29261
lowerneck 8.53122 14.3871 6.38354
upperneck -3.72014 20.0724 4.03143
head -2.40501 9.70419 -0.608002
rclavicle -3.72721e-015 3.18055e-015
rhumerus -32.8134 -2.39266 -62.7837
rradius 81.223
rwrist 7.91106
rhand -50.6861 3.2786
rfingers 7.12502
rthumb -23.2475 -25.3381
lclavicle -3.72721e-015 3.18055e-015
lhumerus 59.9098 -50.2785 24.9969
lradius 92.5588
lwrist 38.0388
lhand -22.1065 9.91607
lfingers 7.12502
lthumb 4.3059 39.8523
rfemur -3.83869 1.48681 24.4139
rtibia 28.8336
rfoot -17.6862 -5.60181
rtoes -3.88626
lfemur -15.7206 -7.15805 -6.21083
ltibia 33.8592
lfoot -1.2248 -21.2323
ltoes 9.89813
1572
root -7.64537 16.7866 -3.44198 21.5551 -78.9683 -22.5379
lowerback 4.55016 3.5976 3.81291
upperback -1.73744 4.92869 -2.69378
thorax -3.78941 2.32169 -5.29575
lowerneck 8.50037 14.2761 6.34362
upperneck -3.6988 19.9241 4.14536
head -2.41125 9.62786 -0.562363
rclavicle 6.36856e-014 -1.43125e-014
rhumerus -32.4088 -2.04937 -62.883
rradius 81.2769
rwrist 7.95741
rhand -50.6882 3.22434
rfingers 7.12502
rthumb -23.2495 -25.3921
lclavicle 6.36856e-014 -1.43125e-014
lhumerus 59.2558 -49.8507 25.3848
lradius 92.3809
lwrist 37.9502
lhand -22.124 10.0056
lfingers 7.12502
lthumb 4.28906 39.9422
rfemur -3.72213 0.952234 24.6598
rtibia 28.7118
rfoot -17.804 -5.66151
rtoes -3.88909
lfemur -15.832 -6.37809 -6.44597
ltibia 34.5074
lfoot -2.98497 -19.9986
ltoes 8.20066
